<svg
  xmlns="http://www.w3.org/2000/svg"
  width="24"
  height="24"
  viewBox="0 0 24 24"
  fill="none"
  stroke="hsl(48 96% 59%)"
  stroke-width="2"
  stroke-linecap="round"
  stroke-linejoin="round"
>
  <path d="M21 10V8a2 2 0 0 0-1-1.73l-7-4a2 2 0 0 0-2 0l-7 4A2 2 0 0 0 3 8v2" />
  <path d="M21 14v2a2 2 0 0 1-1 1.73l-7 4a2 2 0 0 1-2 0l-7-4A2 2 0 0 1 3 16v-2" />
  <path d="M3.27 7.96 12 12.5l8.73-4.54" />
  <path d="m12 22.08 8.73-4.54" />
  <path d="M12 12.5V22" />
  <path d="M3.27 16.04 12 12.5" />
</svg>
